<svg width="243" height="243" viewBox="0 0 243 243" fill="none" xmlns="http://www.w3.org/2000/svg">
    <path d="M73.3461 35.2739C81.9428 31.0344 93.0225 30.6953 102.434 30.6953C104.312 30.0693 111.926 26.5482 113.853 25.8474C119.388 23.8347 125.491 24.002 131.01 21.969C135.162 20.4393 139.455 19.503 143.533 17.7136C147.006 16.19 150.493 14.9624 154.307 14.724C160.433 14.3412 165.581 15.0713 170.843 18.36C174.865 20.8734 179.872 21.8061 183.502 24.8778C188.402 29.0238 191.209 34.3353 193.79 40.1218C195.367 43.655 198.275 48.5335 198.423 52.511C198.507 54.7755 198.423 57.0583 198.423 59.325C198.423 67.3164 202.301 74.7562 202.301 82.7567C202.301 91.4523 204.109 100.76 206.664 109.124C208.017 113.552 210.274 117.674 210.92 122.321C211.503 126.521 211.512 130.668 211.512 134.899C211.512 140.273 213.507 145.209 213.828 150.547C214.041 154.087 214.201 162.424 210.543 164.66C208.384 165.979 203.201 164.983 200.847 164.983C195.705 164.983 190.255 165.116 186.842 169.616C184.378 172.863 182.345 175.449 179.139 178.073C177.445 179.459 177.181 180.855 176.849 182.974C176.247 186.83 176.607 190.934 176.607 194.825C176.607 199.022 176.014 202.776 175.422 206.918C174.41 214.006 174.687 215.684 166.884 218.667C161.449 220.745 156.233 221.431 150.374 221.226C146.784 221.1 142.446 221.398 139.009 220.095C135.606 218.804 134.02 217.637 132.275 214.439C129.992 210.252 128.089 214.195 126.781 209.584C125.615 205.475 125.804 201.031 124.626 197.006C123.393 192.792 115.216 192.912 111.887 192.616C108.035 192.274 104.141 192.069 100.495 190.677C95.969 188.949 104.84 216.587 93.4616 222.566C82.4901 224.308 84.2612 198.498 80.0519 197.006C67.7959 192.662 65.7097 186.348 55.6707 190.677C50.1712 193.048 42.7041 182.947 36.9866 181.358C32.192 180.027 31.2468 176.612 30.5765 172.255C29.8385 167.458 27.2318 162.972 25.9441 158.304C24.7379 153.931 25.9186 148.044 25.8363 143.598C25.8008 141.681 24.5505 140.357 23.6817 138.777C21.829 135.409 19.6495 131.834 18.2951 128.247C14.7126 118.758 13.9499 106.499 15.3863 96.5195C16.2315 90.648 20.0635 86.1775 22.8468 81.1677C24.1492 78.8232 23.9817 76.9582 22.5505 74.8115C19.9329 70.8851 23.8347 64.4678 24.8667 60.7525C26.1174 56.25 28.6362 50.8048 33.1082 48.6326C41.925 44.3502 52.9655 49.0329 62.1958 45.7239C67.6555 43.7666 68.1268 37.8478 73.3461 35.2739Z" fill="#F4F7FA"/>
    <path d="M166.15 99.853C170.155 99.1603 175.379 99.8784 176.563 103.768C177.423 106.593 175.566 109.474 173.634 111.711C170.868 114.9 167.744 117.763 164.327 120.24C167.243 119.02 170.792 117.863 173.362 119.692C175.216 121.015 175.86 123.58 175.452 125.823C175.045 128.065 173.767 130.047 172.401 131.873C169.088 136.295 165.108 140.175 160.605 143.377C163.458 141.438 167.202 139.6 170.192 141.33C172.36 142.587 173.23 145.426 172.793 147.894C172.355 150.362 170.856 152.511 169.203 154.393C165.086 159.065 159.841 162.608 153.97 164.681C154.077 164.643 150.981 149.279 150.751 147.848C149.834 142.142 149.087 136.411 148.51 130.654C147.981 125.36 147.876 120.004 147.21 114.729C147.031 113.321 146.735 111.81 147.163 110.419C147.691 108.704 149.207 107.529 150.593 106.51C155.194 103.12 160.52 100.841 166.15 99.853ZM53.5048 207.821C41.5633 187.805 41.0735 163.166 42.0388 139.877C42.2464 134.849 42.5254 129.733 44.299 125.021C46.5291 119.091 50.9561 114.272 55.5289 109.893C63.6035 102.199 72.4215 95.3244 81.853 89.3712C84.2845 87.8306 86.9711 86.2931 89.8416 86.5293C92.8975 86.7797 95.4019 88.9765 97.5733 91.1417C115.234 108.761 126.793 131.426 138.063 153.681C139.317 156.158 140.599 158.712 140.835 161.478C141.102 164.527 140.084 167.528 139.082 170.42C136.229 178.663 133.349 186.954 129.255 194.66C126.709 199.452 123.525 204.17 118.813 206.854C115.368 208.819 111.363 209.548 107.437 210.079C99.9287 211.097 92.3523 211.506 84.779 211.595C77.2057 211.683 69.6008 211.436 62.018 211.119C60.4536 211.056 58.6102 211.255 57.0918 210.818C55.5036 210.369 54.3306 209.206 53.5048 207.821Z" fill="#FBD2B5"/>
    <path d="M60.5772 40.9028C60.3141 38.278 60.4599 33.6117 61.5551 31.2151C63.6157 26.6899 68.1726 24.9479 71.4172 24.5295C107.017 19.9329 130.908 21.491 161.837 24.52C166.047 24.9321 170.883 25.723 173.031 29.3686C174.529 31.9046 174.213 35.0746 173.852 38.0054L155.763 184.364C155.616 185.556 155.438 186.818 154.679 187.748C153.555 189.121 151.566 189.32 149.794 189.411C129.027 190.466 108.24 190.845 87.4339 190.546C85.7585 190.522 83.9959 190.47 82.5599 189.604C80.2442 188.208 79.5484 185.228 79.0728 182.567L73.9802 154.54C73.2257 150.389 72.2224 146.205 71.8039 142.004C71.3728 137.683 70.7958 133.375 70.2791 129.064C69.1422 119.644 68.0401 110.222 66.9728 100.796C65.9067 91.4055 64.8694 82.0105 63.8614 72.6113C62.8533 63.212 61.8759 53.8108 60.9291 44.4073L60.5772 40.9028Z" fill="#57585C"/>
    <path d="M111.875 178.821C112.105 182.058 115.112 184.884 118.358 184.884C122.655 184.884 126.318 181.777 125.332 176.705C124.799 173.968 121.545 171.817 118.779 171.674C116.537 171.56 114.341 172.514 113.048 174.345C112.308 175.388 111.736 176.848 111.875 178.821Z" fill="black"/>
    <path d="M115.473 179.274C115.373 179.276 115.275 179.243 115.194 179.181C115.113 179.12 115.052 179.035 115.021 178.937C114.99 178.839 114.991 178.733 115.022 178.633C115.053 178.536 115.113 178.45 115.194 178.389C117.136 176.938 119.164 175.614 121.266 174.424C121.321 174.389 121.382 174.366 121.446 174.356C121.509 174.347 121.574 174.35 121.637 174.366C121.699 174.383 121.757 174.413 121.808 174.454C121.859 174.495 121.902 174.546 121.933 174.605C121.963 174.662 121.982 174.727 121.988 174.793C121.995 174.859 121.988 174.925 121.968 174.989C121.949 175.052 121.917 175.11 121.875 175.16C121.833 175.21 121.781 175.252 121.723 175.28C119.655 176.452 117.661 177.754 115.752 179.181C115.671 179.243 115.573 179.276 115.473 179.274ZM118.283 181.344C118.169 181.344 118.058 181.3 117.973 181.221C117.925 181.18 117.887 181.129 117.859 181.071C117.831 181.014 117.814 180.951 117.81 180.886C117.805 180.823 117.813 180.758 117.833 180.697C117.853 180.636 117.884 180.579 117.925 180.53C118.756 179.552 119.756 178.741 120.876 178.141C120.932 178.111 120.992 178.094 121.054 178.088C121.117 178.083 121.178 178.09 121.238 178.11C121.298 178.13 121.353 178.16 121.4 178.202C121.447 178.243 121.487 178.295 121.515 178.351C121.544 178.408 121.561 178.471 121.567 178.534C121.572 178.599 121.565 178.664 121.546 178.725C121.527 178.786 121.496 178.843 121.456 178.892C121.417 178.94 121.367 178.981 121.311 179.01C120.299 179.554 119.396 180.288 118.646 181.175C118.601 181.229 118.545 181.272 118.483 181.301C118.42 181.33 118.352 181.345 118.283 181.344Z" fill="white"/>
    <path d="M118.358 185.518C114.757 185.518 111.498 182.471 111.243 178.861C111.111 177.008 111.544 175.364 112.53 173.974C113.926 172.005 116.273 170.909 118.811 171.037C121.77 171.195 125.346 173.451 125.955 176.585C126.43 178.992 125.955 181.14 124.584 182.796C123.157 184.526 120.889 185.518 118.358 185.518ZM112.507 178.775C112.713 181.692 115.448 184.25 118.358 184.25C120.509 184.25 122.422 183.426 123.606 181.99C124.715 180.636 125.104 178.85 124.715 176.827C124.229 174.318 121.182 172.432 118.752 172.308C116.651 172.197 114.714 173.101 113.571 174.713C112.759 175.857 112.403 177.223 112.514 178.775H112.507Z" fill="black"/>
    <path d="M70.0275 38.1861C69.0305 40.1895 69.1335 42.5401 69.2682 44.7718C71.4759 81.3187 76.1095 117.679 83.1388 153.611C83.4748 155.333 83.8473 157.119 84.9077 158.517C86.8953 161.135 90.59 161.589 93.8694 161.79C108.11 162.663 122.387 162.816 136.643 162.243C139.021 162.148 141.476 162.01 143.576 160.902C148.242 158.439 149.374 152.385 149.975 147.141C153.955 112.431 157.86 77.7123 161.693 42.9855C161.95 40.6635 162.124 38.0497 160.615 36.265C159.254 34.653 156.97 34.2615 154.869 33.9937C142.845 32.4567 130.747 31.5572 118.628 31.2991C112.567 31.1691 106.508 31.1993 100.449 31.3895C97.3866 31.4861 78.0097 33.3533 75.797 33.9794C73.4353 34.6483 71.1592 35.9115 70.0275 38.1861Z" fill="white"/>
    <path d="M128.879 62.3291C128.879 62.3291 129.482 63.9222 130.126 63.8797C130.769 63.8371 134.159 63.5589 134.717 64.3994C135.274 65.24 136.261 65.1616 137.049 64.9C138.076 64.5591 139.378 63.6507 140.252 65.5933C141.126 67.536 142.052 66.4937 142.655 66.7595C143.258 67.0253 143.183 67.48 143.183 67.48L141.925 69.3625L124.618 67.8281L128.879 62.3291Z" fill="#1B5EC9"/>
    <path d="M127.496 62.3291C128.111 62.9219 128.681 63.5589 129.201 64.2349C129.33 64.4024 129.509 64.5254 129.712 64.5865C129.916 64.6477 130.134 64.6438 130.334 64.5755C131.037 64.3332 131.78 64.2173 132.391 64.5922C132.91 64.9119 133.184 65.5163 133.673 65.8803C134.421 66.4365 135.484 66.3039 136.354 65.9657C137.262 65.6126 138.105 65.0631 139.076 64.9257C139.139 64.9159 139.203 64.9169 139.266 64.9286C139.666 65.0073 139.663 65.4423 139.73 65.7815C139.923 66.7623 140.434 67.2671 141.43 67.4316C141.815 67.4956 143.235 67.1631 143.185 67.4531C141.778 74.1896 139.438 80.5348 137.142 86.8052C135.624 86.3281 134.08 85.9312 132.523 85.5973C130.958 85.2634 129.38 84.9881 127.797 84.7524C126.213 84.5168 124.629 84.3198 123.041 84.1366C121.453 83.9534 119.862 83.7835 118.272 83.6042C117.575 83.5255 116.754 83.5355 116.098 83.2702C115.899 83.1953 115.724 83.068 115.593 82.902C115.461 82.7359 115.379 82.5375 115.353 82.3281C115.193 81.1674 116.097 80.0029 116.647 79.065C117.44 77.7127 118.248 76.3684 119.07 75.032C119.892 73.6956 120.728 72.3683 121.579 71.0501C122.428 69.7315 123.292 68.4218 124.17 67.1211C125.052 65.8143 125.947 64.5171 126.856 63.2298C126.912 63.153 127.514 62.3463 127.496 62.3291Z" fill="#FF8D55"/>
    <path d="M138.597 74.8493C138.564 74.8492 138.532 74.8406 138.504 74.8244C138.476 74.8082 138.452 74.7848 138.435 74.7566C138.417 74.7284 138.408 74.6962 138.407 74.6631C138.405 74.6301 138.413 74.5973 138.428 74.5679C139.339 72.775 140.055 70.887 140.562 68.9375C140.576 68.8896 140.608 68.8492 140.651 68.8247C140.694 68.8002 140.745 68.7935 140.792 68.806C140.84 68.8184 140.882 68.8492 140.907 68.8917C140.933 68.9342 140.942 68.9852 140.931 69.034C140.417 71.011 139.692 72.9255 138.767 74.7436C138.751 74.7753 138.727 74.802 138.697 74.8207C138.667 74.8393 138.633 74.8492 138.597 74.8493ZM137.469 77.5212C137.449 77.5211 137.43 77.518 137.412 77.512C137.363 77.4966 137.323 77.4625 137.3 77.4173C137.276 77.3721 137.272 77.3194 137.287 77.2707C137.305 77.2123 137.325 77.1472 137.346 77.0777C137.489 76.6096 137.68 75.9678 137.952 75.6339C137.967 75.6132 137.987 75.596 138.009 75.5831C138.031 75.5703 138.056 75.562 138.081 75.559C138.107 75.5559 138.133 75.5581 138.157 75.5654C138.182 75.5726 138.205 75.5848 138.225 75.6012C138.245 75.6176 138.261 75.6379 138.273 75.6609C138.285 75.6838 138.292 75.7089 138.294 75.7348C138.296 75.7606 138.293 75.7866 138.285 75.8112C138.277 75.8359 138.264 75.8586 138.247 75.8781C138.024 76.1541 137.836 76.778 137.711 77.1906C137.69 77.2616 137.67 77.3277 137.651 77.387C137.639 77.4261 137.614 77.4601 137.581 77.4842C137.549 77.5083 137.509 77.5213 137.469 77.5212Z" fill="black"/>
    <path d="M138.371 68.2371H138.366C138.236 68.2388 138.11 68.1923 138.009 68.1055C137.832 67.9452 137.788 67.6444 137.91 67.4206C137.968 67.3215 138.049 67.2407 138.146 67.1865C138.243 67.1323 138.351 67.1068 138.46 67.1126C138.501 67.1143 138.54 67.1318 138.57 67.1619C138.674 67.1776 138.769 67.2329 138.838 67.3177C138.89 67.3787 138.928 67.4523 138.949 67.5322C138.969 67.6122 138.972 67.6962 138.956 67.7774C138.898 68.0401 138.647 68.2371 138.371 68.2371ZM138.382 67.4761C138.345 67.4824 138.31 67.4968 138.279 67.5184C138.248 67.54 138.221 67.5682 138.201 67.6015C138.181 67.6376 138.173 67.6797 138.177 67.7214C138.181 67.7631 138.199 67.802 138.226 67.8324C138.267 67.8649 138.317 67.8815 138.369 67.8794C138.491 67.8817 138.606 67.798 138.629 67.6964C138.632 67.6713 138.63 67.6458 138.623 67.6218C138.616 67.5977 138.604 67.5758 138.587 67.5576C138.578 67.5451 138.566 67.5351 138.553 67.5281C138.539 67.5211 138.525 67.5174 138.51 67.5173C138.487 67.5201 138.464 67.5178 138.442 67.5107C138.42 67.5035 138.4 67.4916 138.382 67.4757V67.4761Z" fill="black"/>
    <path d="M138.677 67.393C138.643 67.393 138.609 67.3836 138.58 67.3658C138.55 67.3479 138.526 67.3223 138.51 67.2916C138.493 67.2609 138.485 67.2263 138.487 67.1915C138.488 67.1566 138.499 67.1228 138.518 67.0936C139.65 65.3173 140.26 63.2485 140.276 61.1311C140.276 60.5885 140.228 59.9124 139.816 59.4979C139.553 59.2324 139.187 59.1284 138.927 59.0883C138.078 58.9577 137.126 59.2595 136.014 60.0125C133.777 61.5262 132.221 63.7272 131.746 66.0505C131.734 66.0996 131.705 66.1425 131.663 66.1697C131.621 66.1969 131.57 66.2063 131.522 66.196C131.473 66.1857 131.431 66.1565 131.403 66.1145C131.375 66.0726 131.365 66.0213 131.374 65.9716C131.87 63.5492 133.484 61.2602 135.803 59.6904C136.997 58.8818 138.036 58.5597 138.984 58.7057C139.437 58.7759 139.818 58.9548 140.084 59.2232C140.596 59.7387 140.658 60.5145 140.654 61.1325C140.638 63.3246 140.007 65.4664 138.834 67.3055C138.817 67.3321 138.794 67.354 138.766 67.3692C138.739 67.3845 138.708 67.3927 138.677 67.393Z" fill="black"/>
    <path d="M139.985 66.8304C139.956 66.8304 139.928 66.8238 139.903 66.8112C139.858 66.7895 139.824 66.751 139.807 66.7042C139.791 66.6574 139.794 66.606 139.816 66.5614C140.176 65.8243 140.724 64.3902 140.814 63.5085C140.908 62.5782 140.767 61.8481 140.391 61.3382C139.945 60.7302 139.089 60.3882 138.21 60.4631C137.475 60.5258 136.696 60.8536 135.894 61.4388C134.678 62.3269 133.726 63.5249 133.138 64.9066C133.119 64.9523 133.082 64.9884 133.036 65.0071C132.989 65.0257 132.938 65.0253 132.892 65.006C132.846 64.9866 132.809 64.9499 132.791 64.9039C132.772 64.8579 132.773 64.8064 132.792 64.7607C133.406 63.3169 134.401 62.0649 135.672 61.1371C136.529 60.5108 137.373 60.1586 138.178 60.0903C139.201 60.0033 140.165 60.3967 140.695 61.1193C141.126 61.7063 141.292 62.5225 141.186 63.5487C141.092 64.4758 140.524 65.9655 140.152 66.727C140.136 66.7579 140.112 66.7839 140.083 66.8021C140.054 66.8203 140.02 66.8302 139.985 66.8304Z" fill="black"/>
    <path d="M113.676 55.3347C113.739 55.1809 113.845 55.0488 113.983 54.9549C114.12 54.861 114.283 54.8095 114.449 54.8068L118.689 54.7363C119.153 54.7287 119.624 54.7225 120.068 54.8544C120.521 54.9888 120.917 55.2594 121.31 55.5214C123.769 57.1519 126.379 58.5443 129.105 59.6797C129.222 59.7284 129.327 59.8001 129.416 59.8904C129.504 59.9807 129.573 60.0878 129.619 60.2053C129.665 60.3227 129.686 60.4482 129.682 60.5741C129.678 60.7 129.648 60.8237 129.595 60.9379L124.428 71.9681C122.88 75.2702 121.332 78.5785 120.014 81.9792C119.353 83.6867 118.749 85.4219 118.356 87.2099C118.338 87.2981 118.303 87.3814 118.252 87.4562C118.047 87.7526 117.761 87.6468 117.527 87.5367C115.608 86.6239 114.053 85.1217 112.533 83.6458C111.223 82.3737 109.91 81.0983 108.739 79.6976C108.211 79.0654 107.698 78.3794 107.526 77.5761C107.353 76.7729 107.538 75.9358 107.726 75.1335C108.055 73.7166 108.398 72.3021 108.742 70.889C109.091 69.4626 109.447 68.0379 109.81 66.615C109.977 65.9604 110.205 65.2958 110.284 64.6235C110.332 64.221 110.304 63.8231 110.415 63.4287C110.607 62.7564 110.928 62.1066 111.191 61.4601L112.017 59.4243L113.676 55.3347Z" fill="white"/>
    <path d="M117.909 87.9304C117.713 87.9304 117.532 87.8442 117.436 87.7987C115.453 86.8574 113.877 85.3289 112.351 83.8506C111.048 82.5889 109.701 81.284 108.514 79.8666C108.002 79.2554 107.441 78.5301 107.25 77.6511C107.06 76.7721 107.27 75.8931 107.454 75.1123C107.739 73.8851 108.055 72.5682 108.478 70.8433C108.827 69.4163 109.19 67.9691 109.554 66.5441C109.603 66.3587 109.655 66.1704 109.706 65.9884C109.837 65.5218 109.972 65.0394 110.028 64.5667C110.044 64.4316 110.051 64.2922 110.058 64.1571C110.072 63.8903 110.087 63.6144 110.166 63.3356C110.305 62.8455 110.512 62.367 110.713 61.9047C110.794 61.7179 110.877 61.5244 110.955 61.3361L113.46 55.1774C113.536 54.9878 113.668 54.8249 113.838 54.7092C114.008 54.5934 114.209 54.53 114.415 54.5268L118.687 54.455C119.141 54.4478 119.654 54.4392 120.135 54.5815C120.601 54.7199 121.005 54.9862 121.392 55.2439L121.44 55.2756C123.908 56.9074 126.527 58.3015 129.263 59.4387C129.404 59.4977 129.533 59.5845 129.64 59.6938C129.747 59.8032 129.831 59.9328 129.887 60.0749C129.942 60.2171 129.968 60.3689 129.963 60.5212C129.958 60.6736 129.922 60.8233 129.857 60.9615L124.649 72.0533C123.117 75.3169 121.532 78.6935 120.205 82.1065C119.656 83.5225 118.97 85.3964 118.542 87.3379C118.519 87.4509 118.474 87.5578 118.409 87.6536C118.262 87.8658 118.08 87.9304 117.909 87.9304ZM113.638 55.2483L113.818 55.3196L111.313 61.4784C111.235 61.67 111.15 61.8659 111.068 62.0532C110.875 62.5045 110.67 62.971 110.539 63.4366C110.471 63.6762 110.458 63.9157 110.442 64.1748C110.434 64.3156 110.427 64.4622 110.409 64.6088C110.35 65.1113 110.211 65.608 110.076 66.0885C110.028 66.2686 109.973 66.4545 109.927 66.6355C109.563 68.0602 109.202 69.5054 108.851 70.9314C108.429 72.6559 108.113 73.9698 107.828 75.1947C107.654 75.9372 107.456 76.7788 107.627 77.5673C107.797 78.3558 108.327 79.0427 108.81 79.6185C109.984 81.0206 111.324 82.3182 112.619 83.5733C114.123 85.03 115.678 86.536 117.6 87.45C117.904 87.5937 118 87.5597 118.088 87.4327C118.124 87.3781 118.149 87.3168 118.162 87.2526C118.598 85.2858 119.287 83.3941 119.842 81.9657C121.173 78.5392 122.76 75.1578 124.295 71.888L129.502 60.7982C129.545 60.7068 129.568 60.6079 129.572 60.5073C129.575 60.4067 129.558 60.3065 129.521 60.2126C129.484 60.1188 129.429 60.0331 129.358 59.9609C129.287 59.8887 129.202 59.8313 129.109 59.7922C126.35 58.6457 123.709 57.2399 121.221 55.5941L121.173 55.5625C120.808 55.323 120.431 55.0705 120.02 54.9489C119.598 54.8234 119.136 54.831 118.69 54.8382L114.418 54.9072C114.287 54.9091 114.161 54.9492 114.053 55.0222C113.946 55.0952 113.863 55.198 113.814 55.3177L113.638 55.2483Z" fill="black"/>
    <path d="M124.344 61.0177C124.31 61.0177 124.277 61.0177 124.243 61.0129C124.065 60.9962 123.913 60.9173 123.778 60.8493C123.709 60.811 123.636 60.7778 123.561 60.7498C121.563 60.0647 119.698 58.8409 117.896 57.6554C117.609 57.4679 117.323 57.281 117.037 57.0947C116.995 57.067 116.965 57.0236 116.954 56.9739C116.944 56.9242 116.953 56.8723 116.981 56.8297C117.009 56.787 117.052 56.7571 117.102 56.7465C117.151 56.7359 117.203 56.7455 117.246 56.7732C117.533 56.9595 117.82 57.1469 118.107 57.3354C119.891 58.5065 121.735 59.7169 123.688 60.3862C123.78 60.4201 123.869 60.4606 123.956 60.5073C124.07 60.5656 124.177 60.6206 124.282 60.6307C124.436 60.6455 124.604 60.6029 124.766 60.5618L126.911 60.0183C126.935 60.012 126.961 60.0106 126.985 60.0141C127.01 60.0176 127.034 60.026 127.056 60.0388C127.078 60.0516 127.096 60.0685 127.112 60.0887C127.127 60.1088 127.138 60.1317 127.144 60.1561C127.151 60.1804 127.152 60.2059 127.149 60.2308C127.145 60.2557 127.137 60.2797 127.124 60.3013C127.111 60.323 127.094 60.342 127.074 60.3571C127.054 60.3722 127.031 60.3832 127.006 60.3896L124.857 60.934C124.69 60.9832 124.518 61.0114 124.344 61.0177ZM116.083 56.4594C116.048 56.4594 116.013 56.4495 115.983 56.4307C115.687 56.2489 115.414 56.0862 115.149 55.9346C115.127 55.922 115.108 55.9052 115.093 55.8853C115.077 55.8653 115.066 55.8426 115.06 55.8183C115.053 55.7939 115.051 55.7686 115.055 55.7437C115.058 55.7187 115.066 55.6946 115.079 55.6729C115.091 55.651 115.108 55.6319 115.128 55.6166C115.148 55.6012 115.171 55.59 115.195 55.5835C115.219 55.5769 115.245 55.5753 115.27 55.5785C115.294 55.5818 115.318 55.59 115.34 55.6025C115.609 55.7561 115.885 55.9207 116.184 56.1049C116.22 56.1267 116.248 56.1595 116.262 56.1984C116.278 56.2372 116.28 56.28 116.269 56.3202C116.257 56.3603 116.233 56.3957 116.2 56.4208C116.166 56.4459 116.126 56.4595 116.084 56.4594H116.083ZM116.748 79.4903C116.722 79.4903 116.696 79.4853 116.673 79.4755C116.649 79.4656 116.629 79.4514 116.611 79.4334C116.593 79.4155 116.58 79.3943 116.57 79.3709C116.56 79.3476 116.556 79.3226 116.556 79.2975C116.556 79.2723 116.561 79.2474 116.571 79.2243C116.815 78.6502 116.963 78.2067 117.15 77.6455C117.472 76.6772 117.915 75.3492 119.169 72.383L123.502 62.1219C123.522 62.0758 123.56 62.0395 123.607 62.0209C123.653 62.0022 123.706 62.0027 123.752 62.0223C123.798 62.0419 123.835 62.0789 123.854 62.1254C123.874 62.1719 123.874 62.224 123.855 62.2707L119.523 72.5313C118.274 75.4874 117.835 76.805 117.513 77.7675C117.322 78.3359 117.174 78.7851 116.924 79.3741C116.909 79.4086 116.884 79.4379 116.853 79.4587C116.822 79.4793 116.785 79.4903 116.748 79.4903Z" fill="black"/>
    <path d="M114.612 60.5071C114.714 60.2468 114.838 59.9618 115.093 59.8482C115.367 59.7248 115.683 59.8482 115.959 59.9734L120.527 62.0381C120.773 62.1498 121.038 62.2775 121.165 62.5188C121.34 62.8529 121.185 63.2588 121.028 63.6021C119.469 67.0046 117.756 70.3292 115.89 73.5757C115.831 73.6792 115.764 73.7889 115.656 73.8374C115.508 73.9035 115.338 73.8331 115.192 73.7632L110.27 71.4217C110.571 70.839 110.943 70.2641 111.099 69.6251C111.271 68.9293 111.583 68.2655 111.843 67.5988L113.622 63.0495L114.122 61.7676L114.376 61.1174C114.438 60.9538 114.612 60.6809 114.612 60.5071Z" fill="#1B5EC9"/>
    <path d="M112.793 70.9282C112.674 71.1495 112.827 71.4358 113.068 71.5455C113.309 71.6552 113.603 71.6195 113.85 71.5227C114.151 71.4049 114.424 71.1775 114.481 70.8821C114.513 70.689 114.464 70.492 114.345 70.3304C114.071 69.9468 113.458 69.8081 113.022 70.0336C112.587 70.2592 112.395 70.8105 112.609 71.225L112.793 70.9282Z" fill="black"/>
    <path d="M114.606 63.6492L113.152 67.9271C113.104 68.0602 113.061 68.2029 113.097 68.3389C113.145 68.5189 113.319 68.631 113.48 68.7248C114.126 69.1002 114.784 69.4557 115.455 69.7912C115.628 69.8783 115.825 69.966 116.01 69.9047C116.17 69.851 116.273 69.6992 116.364 69.557C117.522 67.7336 118.553 65.8324 119.45 63.8671C119.526 63.6985 119.602 63.4998 119.516 63.336C119.459 63.2292 119.347 63.166 119.24 63.1091L116.888 61.8445C116.485 61.6275 115.629 61.2067 115.317 61.7559C115.184 61.9876 115.113 62.273 115.014 62.522C114.864 62.8917 114.736 63.2704 114.606 63.6492Z" fill="white"/>
    <path d="M86.3063 71.5167C86.0013 70.9545 85.6891 70.3283 85.8283 69.7039C85.9621 69.0939 86.4894 68.6584 87.0029 68.3027C88.1885 67.4828 89.4764 66.8231 90.7695 66.1868C96.2334 63.4991 101.871 61.1805 107.645 59.2468C108.315 59.023 109.057 58.806 109.705 59.0847C110.531 59.4399 110.843 60.4285 111.05 61.3034C112.48 67.3585 113.361 73.5284 114.24 79.6878C114.398 80.7959 114.979 85.4298 115.053 86.5465C115.075 86.8774 97.2688 87.168 96.3605 87.0657C95.7529 86.9974 95.3714 86.6092 95.0334 86.1287C94.4306 85.2711 93.886 84.3661 93.3258 83.4798C92.1625 81.6392 91.0283 79.7807 89.9234 77.9041C88.8184 76.0275 87.7426 74.1344 86.696 72.2247C86.5656 71.9886 86.4357 71.7526 86.3063 71.5167Z" fill="#FACBDF"/>
    <path d="M102.866 84.6374C103.095 85.0724 103.343 85.5269 103.763 85.7894C104.183 86.0518 104.83 86.0284 105.092 85.6149C105.45 85.0499 104.891 84.3749 104.438 83.8807C103.939 83.3367 103.526 82.7234 103.129 82.1044C99.5738 76.5761 97.1487 70.4289 94.825 64.2983C94.6951 64.3371 94.3823 64.3686 94.2878 64.4628C94.1845 64.5651 94.2557 64.6932 94.2921 64.8222C94.392 65.1788 94.4954 65.5346 94.6025 65.8896C94.8158 66.5987 95.0421 67.3038 95.2813 68.0049C95.7575 69.4011 96.2817 70.7812 96.8423 72.1459C97.4062 73.5197 98.006 74.8782 98.6364 76.2243C99.2668 77.5704 99.9132 78.8978 100.581 80.221C101.249 81.5441 101.939 82.8701 102.63 84.1885C102.707 84.3377 102.785 84.4882 102.866 84.6374Z" fill="#FF5400"/>
    <path d="M112.01 67.3931C112.323 67.7317 112.505 68.1708 112.521 68.631C104.693 71.0374 97.1231 74.2036 89.9198 78.0838C90.008 78.0181 89.1028 76.2817 89.1742 75.927C89.236 75.6218 89.5235 75.5008 89.7832 75.3894C90.196 75.2126 90.6092 75.0381 91.0229 74.8657C92.6841 74.1674 94.3544 73.4914 96.0338 72.8379C97.7132 72.1844 99.4008 71.5524 101.096 70.942C102.793 70.3336 104.497 69.7489 106.21 69.188C107.923 68.6272 109.644 68.0918 111.373 67.5821C111.585 67.5176 111.797 67.4546 112.01 67.3931Z" fill="#FF5400"/>
    <path d="M92.6024 70.7324C92.4996 70.7324 92.3818 70.7381 92.3158 70.8164C92.2499 70.8947 92.2625 70.9926 92.2746 71.0857C92.434 72.2768 92.9164 73.4037 93.6711 74.3479C93.7948 74.5021 93.9408 74.6601 94.1367 74.6983C94.3743 74.746 94.6026 74.6028 94.8034 74.4682C96.8259 73.1228 99.1128 72.0396 101.549 71.8901L98.8252 68.1014C98.6395 67.8431 98.3156 67.5538 98.0469 67.7266C97.9364 67.7978 97.883 67.9276 97.8389 68.0503C97.6306 68.6276 97.4774 69.2228 97.3812 69.8282C97.29 70.4011 97.3516 71.0117 97.2328 71.5727C97.0917 72.2387 96.632 71.84 96.2281 71.6338C95.6968 71.3629 95.1372 71.1498 94.559 70.9983C93.9204 70.8308 93.2632 70.7415 92.6024 70.7324Z" fill="#FF5400"/>
    <path d="M93.7318 79.8446C93.6446 80.3077 93.6058 80.8599 93.9483 81.1784L95.2012 79.7901C95.3376 79.6382 95.4852 79.4794 95.6801 79.4249C96.0311 79.3275 96.3784 79.6021 96.59 79.9026C96.8017 80.203 96.9694 80.5595 97.2807 80.7518C97.3592 80.8076 97.4549 80.833 97.5503 80.8234C97.6213 80.8068 97.6863 80.7704 97.738 80.7182C98.0398 80.4407 98.0924 79.9878 98.1178 79.5734C98.1876 78.42 98.1912 77.2635 98.1284 76.1097C98.0964 75.5324 98.0485 74.9568 97.9847 74.3829C97.9262 73.8638 97.9243 73.2254 97.717 72.7419C97.5254 72.2924 97.2519 72.4356 97.0182 72.7535C96.7375 73.1348 96.4641 73.5278 96.1954 73.9188C94.9744 75.6965 94.1349 77.7155 93.7313 79.8446H93.7318Z" fill="#FF5400"/>
    <path d="M136.598 80.3345C136.585 80.3344 136.572 80.333 136.559 80.3301C136.509 80.3197 136.465 80.2899 136.437 80.2474C136.409 80.2048 136.399 80.1528 136.41 80.103C136.467 79.8288 136.949 78.1231 137.184 77.4897C137.191 77.4649 137.204 77.442 137.221 77.4224C137.238 77.4027 137.259 77.3867 137.282 77.3753C137.306 77.3638 137.331 77.3573 137.357 77.3559C137.383 77.3546 137.409 77.3585 137.434 77.3675C137.458 77.3765 137.48 77.3902 137.5 77.4081C137.518 77.4259 137.533 77.4473 137.544 77.4712C137.554 77.495 137.56 77.5206 137.56 77.5466C137.56 77.5726 137.555 77.5983 137.545 77.6222C137.322 78.2268 136.841 79.92 136.787 80.1813C136.778 80.2245 136.754 80.2633 136.72 80.2912C136.686 80.3191 136.643 80.3344 136.598 80.3345ZM131.156 66.9596C131.026 66.9616 130.899 66.9229 130.792 66.8489C130.685 66.775 130.605 66.6696 130.562 66.5476C130.518 66.4256 130.515 66.2931 130.551 66.1689C130.587 66.0447 130.662 65.9349 130.764 65.8551C130.832 65.7976 130.912 65.755 130.998 65.7301C131.083 65.7054 131.173 65.6988 131.262 65.7111C131.293 65.7161 131.323 65.7288 131.348 65.748C131.373 65.7672 131.394 65.7922 131.407 65.8211C131.485 65.8478 131.556 65.8929 131.614 65.9526C131.671 66.0124 131.714 66.085 131.737 66.1644C131.763 66.2501 131.769 66.3403 131.755 66.4286C131.741 66.5169 131.708 66.601 131.657 66.6749C131.609 66.7512 131.545 66.816 131.468 66.8645C131.392 66.9129 131.306 66.944 131.216 66.9553C131.197 66.9582 131.176 66.9596 131.156 66.9596ZM131.113 66.0977C131.074 66.1081 131.038 66.1268 131.008 66.1524C130.981 66.173 130.958 66.1989 130.942 66.2286C130.925 66.2582 130.915 66.291 130.911 66.3248C130.911 66.3589 130.919 66.3927 130.933 66.4237C130.948 66.4548 130.968 66.4824 130.994 66.5049C131.018 66.5285 131.046 66.5469 131.077 66.5589C131.108 66.5708 131.142 66.5759 131.175 66.574C131.208 66.5686 131.239 66.5561 131.267 66.5374C131.295 66.5187 131.318 66.4941 131.335 66.4655C131.354 66.4389 131.367 66.4086 131.373 66.3766C131.379 66.3446 131.378 66.3117 131.37 66.2801C131.354 66.2259 131.309 66.1841 131.277 66.1841C131.245 66.185 131.212 66.1775 131.183 66.1623C131.154 66.1472 131.129 66.1249 131.111 66.0977H131.113Z" fill="black"/>
    <path d="M87.6779 71.1978C87.8544 71.4669 88.2566 71.2986 88.2151 70.976C88.1736 70.6665 88.1153 70.3504 88.1669 70.05C88.2594 69.5248 88.6775 69.1306 89.1124 68.8514C89.5835 68.5489 90.1101 68.3256 90.4896 67.8982C90.5191 67.8662 90.5421 67.8282 90.557 67.7866C90.5719 67.745 90.5785 67.7006 90.5764 67.6563C90.5609 67.4441 90.3478 67.3947 90.1737 67.3931C89.2364 67.3856 88.3723 67.94 87.6307 68.4854C87.3148 68.7173 86.9715 69.0611 86.9243 69.487C86.8857 69.8368 87.0863 70.1604 87.2483 70.4487C87.3876 70.6962 87.5241 70.9467 87.6717 71.1892C87.6735 71.1922 87.6756 71.1951 87.6779 71.1978Z" fill="white"/>
    <path d="M93.4921 85.926C95.2292 91.9588 96.499 100.209 98.7025 104.024C99.0039 104.548 99.0475 105.203 99.453 105.651C100.24 106.519 101.583 106.533 102.758 106.482L128.946 105.346C129.6 105.318 130.262 105.289 130.89 105.102C132.244 104.699 133.296 103.594 133.945 102.347C134.595 101.101 134.896 99.7094 135.193 98.3368C136.263 93.3547 137.333 88.372 138.404 83.3899C136.809 83.3413 135.214 83.3008 133.619 83.2679C132.023 83.2351 130.428 83.2098 128.832 83.1913C127.23 83.1722 125.627 83.1598 124.025 83.1536C122.429 83.147 120.834 83.146 119.238 83.1503C117.643 83.1546 116.047 83.1632 114.452 83.176C112.856 83.1889 111.26 83.2046 109.665 83.2236C108.069 83.2427 106.473 83.2651 104.877 83.2908C103.275 83.316 101.672 83.3427 100.07 83.3718C98.4742 83.3999 96.8787 83.4289 95.283 83.4599C94.7263 83.4704 94.0353 83.3861 93.5051 83.6028C92.9465 83.8314 93.1092 84.4153 93.2172 84.8829C93.2944 85.2359 93.3933 85.5807 93.4921 85.926Z" fill="#3982F0"/>
    <path d="M84.6627 94.9637C84.3467 94.9637 84.0522 94.8072 83.8448 94.679C82.9708 94.134 82.2669 93.3531 81.8132 92.4259C81.675 92.1416 81.5263 91.7651 81.589 91.3694C81.6731 90.8489 82.0789 90.4954 82.4877 90.178C83.3089 89.5394 84.156 88.9108 85.0054 88.3091C86.5131 87.2416 88.082 86.2207 89.669 85.2752C90.0649 85.0394 90.4688 84.8036 90.8708 84.575L90.9884 84.5063C91.2446 84.3551 91.562 84.1664 91.8966 84.1769C92.1835 84.1865 92.3111 84.3282 92.367 84.4458C92.6314 85 91.7509 86.1851 91.7131 86.2356L85.6899 94.2708C85.5169 94.5018 85.2559 94.8504 84.8625 94.9402C84.7969 94.9551 84.7299 94.9633 84.6627 94.9637ZM82.6072 90.3312L82.7214 90.4834C82.3734 90.7538 82.0283 91.0501 81.9661 91.4328C81.9183 91.7209 82.0436 92.0244 82.1573 92.2578C82.5792 93.1198 83.2334 93.8454 84.0455 94.352C84.3572 94.544 84.5833 94.6113 84.7779 94.5666C85.0169 94.5128 85.2 94.2876 85.3845 94.0413L91.4076 86.006C91.726 85.5806 92.1247 84.8271 92.0224 84.6134C92.0071 84.5822 91.9607 84.5654 91.8842 84.5625C91.6629 84.5558 91.4086 84.7066 91.1834 84.8386C91.1414 84.8636 91.1003 84.8867 91.0606 84.9107C90.6609 85.1383 90.2589 85.3726 89.8655 85.607C88.288 86.5472 86.7268 87.5628 85.2287 88.6246C84.3816 89.2229 83.5388 89.8481 82.7214 90.4834L82.6072 90.3312ZM145.065 93.6153C145.029 93.6153 144.994 93.6125 144.959 93.6067C144.705 93.5644 144.528 93.3791 144.385 93.2081C143.525 92.1877 142.824 91.0357 142.145 89.9211L139.755 85.9931C139.689 85.8836 139.617 85.7746 139.542 85.6593C139.297 85.2867 139.045 84.9016 138.935 84.4626C138.856 84.1524 138.778 83.5868 139.131 83.29C139.547 82.9414 140.127 83.3154 140.474 83.5387C140.517 83.5666 140.557 83.5925 140.593 83.6141C141.107 83.9282 141.626 84.273 142.135 84.6394C143.922 85.9249 145.681 87.5326 147.511 89.5547C147.928 90.0152 148.385 90.6285 148.214 91.2835C148.09 91.7555 147.695 92.0552 147.3 92.3217C146.76 92.6876 146.206 93.0487 145.653 93.3949C145.473 93.5087 145.281 93.6153 145.065 93.6153ZM142.475 89.7218C143.144 90.8263 143.839 91.9634 144.679 92.9613C144.784 93.0852 144.897 93.2076 145.022 93.2288C145.148 93.2499 145.3 93.1659 145.452 93.0703C146.002 92.7265 146.552 92.3678 147.089 92.0047C147.424 91.779 147.758 91.5298 147.845 91.1884C147.969 90.7144 147.606 90.228 147.23 89.815C145.418 87.8135 143.679 86.2231 141.915 84.9534C141.413 84.5928 140.903 84.2533 140.396 83.945C140.358 83.9219 140.316 83.8941 140.269 83.8643C140.011 83.6982 139.578 83.4192 139.378 83.5872C139.215 83.7246 139.235 84.0823 139.307 84.3709C139.403 84.7469 139.636 85.1047 139.863 85.4504C139.937 85.5633 140.013 85.68 140.084 85.7952L142.475 89.7218Z" fill="black"/>
    <path d="M102.633 98.1367C102.59 98.1367 102.549 98.1224 102.516 98.0968C102.483 98.0712 102.459 98.0351 102.448 97.9943C101.616 94.8075 101.007 92.2083 100.238 88.5525C100.225 88.5316 100.217 88.5084 100.212 88.4842L100.145 88.1044C100.137 88.056 100.149 88.0062 100.177 87.9663C100.206 87.9265 100.249 87.8989 100.297 87.8894C100.345 87.8799 100.395 87.8899 100.437 87.9165C100.478 87.9435 100.507 87.9848 100.519 88.0328C101.328 91.9187 101.954 94.5929 102.817 97.9003C102.824 97.9245 102.825 97.9497 102.822 97.9743C102.818 97.999 102.81 98.0227 102.797 98.0441C102.785 98.0659 102.768 98.0844 102.748 98.0996C102.728 98.1148 102.705 98.1257 102.681 98.1319C102.665 98.1357 102.649 98.1371 102.633 98.1367ZM109.706 94.8611C109.658 94.8611 109.613 94.844 109.577 94.8122C109.542 94.7809 109.52 94.7372 109.515 94.6902L108.858 88.1799C108.826 87.8567 108.789 87.4902 108.613 87.2131C108.599 87.1922 108.589 87.1684 108.584 87.1433C108.579 87.1181 108.579 87.0925 108.584 87.0678C108.59 87.0427 108.6 87.0189 108.614 86.998C108.629 86.9772 108.648 86.9596 108.669 86.9458C108.691 86.9321 108.715 86.923 108.74 86.9192C108.765 86.915 108.791 86.9159 108.816 86.9221C108.841 86.9278 108.864 86.9387 108.885 86.9539C108.905 86.9691 108.922 86.9885 108.935 87.0104C109.159 87.363 109.201 87.7769 109.237 88.1419L109.895 94.6518C109.898 94.6765 109.896 94.7016 109.888 94.7258C109.881 94.7496 109.869 94.7719 109.854 94.7913C109.838 94.8108 109.818 94.8264 109.796 94.8383C109.774 94.8502 109.75 94.8578 109.725 94.8601L109.706 94.8611ZM109.986 97.7584C109.939 97.7588 109.894 97.7422 109.859 97.7114C109.824 97.6805 109.801 97.6383 109.795 97.5922L109.638 96.3487C109.635 96.324 109.636 96.2988 109.643 96.2746C109.65 96.2509 109.661 96.2281 109.676 96.2086C109.692 96.1887 109.711 96.1721 109.732 96.1597C109.754 96.1474 109.778 96.1398 109.803 96.1365C109.828 96.1332 109.853 96.1351 109.877 96.1417C109.901 96.1483 109.924 96.1597 109.944 96.1749C109.964 96.1901 109.98 96.2091 109.992 96.2309C110.005 96.2523 110.013 96.2765 110.016 96.3012L110.174 97.5452C110.177 97.5699 110.175 97.5951 110.168 97.6193C110.162 97.643 110.151 97.6658 110.135 97.6853C110.12 97.7052 110.101 97.7218 110.079 97.7342C110.057 97.7465 110.033 97.7541 110.008 97.7574L109.986 97.7584ZM117.227 98.4191C117.177 98.4191 117.128 98.3991 117.092 98.3635C117.057 98.3279 117.037 98.2795 117.037 98.2292L117.094 87.8723C117.094 87.822 117.114 87.7736 117.15 87.738C117.186 87.7024 117.234 87.6825 117.285 87.6825C117.335 87.6825 117.384 87.7024 117.42 87.738C117.455 87.7736 117.475 87.822 117.475 87.8723L117.42 98.2278C117.42 98.253 117.415 98.2781 117.405 98.3014C117.396 98.3246 117.381 98.346 117.363 98.3635C117.346 98.3816 117.324 98.3953 117.301 98.4048C117.278 98.4143 117.252 98.4191 117.227 98.4191ZM117.237 101.153C117.187 101.153 117.138 101.133 117.102 101.098C117.067 101.062 117.047 101.014 117.047 100.963V100.218C117.047 100.167 117.067 100.119 117.102 100.083C117.138 100.048 117.187 100.028 117.237 100.028C117.288 100.028 117.336 100.048 117.372 100.083C117.408 100.119 117.428 100.167 117.428 100.218V100.963C117.428 101.014 117.408 101.062 117.372 101.098C117.336 101.133 117.288 101.153 117.237 101.153ZM124.7 93.5207C124.69 93.5207 124.68 93.5197 124.671 93.5183C124.621 93.5107 124.576 93.4837 124.546 93.4428C124.516 93.4025 124.504 93.3517 124.511 93.3019C124.851 91.0995 125.266 88.871 125.745 86.6791C125.75 86.6549 125.76 86.6316 125.775 86.6112C125.789 86.5908 125.807 86.5732 125.828 86.5595C125.849 86.5462 125.873 86.5372 125.897 86.5324C125.922 86.5281 125.947 86.5286 125.972 86.5338C125.996 86.5391 126.019 86.549 126.04 86.5633C126.06 86.5775 126.078 86.5955 126.091 86.6169C126.105 86.6378 126.114 86.661 126.119 86.6857C126.123 86.7104 126.123 86.7356 126.118 86.7598C125.641 88.9432 125.227 91.1645 124.888 93.3574C124.881 93.4025 124.859 93.4438 124.825 93.4737C124.79 93.5036 124.746 93.5202 124.7 93.5207ZM131.039 97.0098C131.024 97.0098 131.009 97.0084 130.995 97.0046C130.97 96.9989 130.947 96.9885 130.926 96.9742C130.906 96.9595 130.889 96.941 130.875 96.9201C130.862 96.8988 130.853 96.875 130.849 96.8504C130.845 96.8257 130.846 96.8005 130.852 96.7763C131.645 93.45 132.255 90.0828 132.679 86.69C132.682 86.6653 132.69 86.6411 132.702 86.6197C132.714 86.5979 132.731 86.5789 132.751 86.5637C132.771 86.5485 132.793 86.5371 132.817 86.5305C132.842 86.5239 132.867 86.522 132.892 86.5253C132.916 86.5286 132.94 86.5362 132.962 86.5485C132.984 86.5609 133.003 86.5775 133.018 86.5974C133.034 86.6169 133.045 86.6397 133.052 86.6634C133.058 86.6876 133.06 86.7128 133.057 86.7375C132.632 90.144 132.02 93.525 131.224 96.8651C131.214 96.9064 131.19 96.9429 131.157 96.9695C131.123 96.9956 131.082 97.0098 131.039 97.0098Z" fill="white"/>
    <path d="M93.6899 85.9659C93.0645 85.9693 92.4396 85.9337 91.8186 85.8597C91.5137 85.8217 91.0882 85.7289 90.9217 85.3669C90.7977 85.0967 90.8844 84.7934 90.9365 84.6116C90.9844 84.4429 91.0351 84.2713 91.0868 84.1015C91.1227 83.9828 91.1572 83.8501 91.194 83.7097C91.4003 82.9189 91.6831 81.8347 92.6906 81.7607C93.1214 81.7285 93.566 81.7506 93.9948 81.7722C94.2303 81.7838 94.4734 81.7963 94.7084 81.7987C95.3923 81.8059 96.1155 81.8025 96.8578 81.7891C98.1433 81.765 99.5112 81.7112 101.162 81.6189C102.377 81.5511 103.611 81.4694 104.806 81.391L105.473 81.3468C106.83 81.2583 108.277 81.1655 109.747 81.0953C114.332 80.8766 118.995 80.891 123.504 80.903L137.775 80.9463C138.073 80.9463 138.412 80.9463 138.732 81.0535C139.821 81.4141 140.162 82.7049 140.338 83.7886C140.373 84.0011 140.437 84.3967 140.204 84.6722C140.027 84.8809 139.761 84.9337 139.525 84.9669C137.563 85.2429 135.55 85.1631 133.605 85.0857L133.118 85.0664C121.984 84.6371 110.655 85.1823 99.6998 85.7092C98.3664 85.7731 97.033 85.8376 95.6996 85.9015C95.0372 85.9347 94.3652 85.9659 93.6899 85.9659ZM91.306 84.7198C91.2553 84.8958 91.2103 85.0785 91.2706 85.2073C91.3366 85.3515 91.5262 85.4376 91.8674 85.4799C93.1376 85.6385 94.4308 85.576 95.6814 85.5193C97.0145 85.4568 98.3477 85.3929 99.6811 85.327C110.644 84.7982 121.984 84.2544 133.133 84.6842L133.619 84.703C135.548 84.7799 137.543 84.8592 139.472 84.5881C139.645 84.5636 139.822 84.5309 139.912 84.4251C140.021 84.2958 139.994 84.0616 139.959 83.8525C139.801 82.8756 139.504 81.7165 138.611 81.4208C138.35 81.3343 138.057 81.3338 137.774 81.3328L123.503 81.2925C118.998 81.279 114.34 81.2646 109.767 81.4848C108.3 81.5549 106.854 81.6473 105.499 81.7362L104.832 81.7799C103.635 81.8588 102.401 81.94 101.185 82.0083C99.5289 82.1006 98.1567 82.1525 96.8664 82.179C96.1203 82.1924 95.3933 82.1958 94.7055 82.1886C94.4638 82.1862 94.2164 82.1737 93.9771 82.1617C93.5602 82.141 93.129 82.1194 92.7203 82.1496C91.9851 82.204 91.7631 83.0588 91.5659 83.8126C91.5281 83.9568 91.4927 84.0929 91.4544 84.2188C91.4036 84.3866 91.3539 84.5554 91.306 84.7232V84.7198Z" fill="black"/>
    <path d="M97.3151 73.4144C97.199 73.4145 97.0847 73.388 96.9817 73.3373C96.8786 73.2866 96.7899 73.213 96.723 73.1229C96.6454 73.0194 96.5795 72.9084 96.5263 72.7918L96.5043 72.7485C96.3947 72.5313 96.2941 72.2745 96.3766 72.0187C96.411 71.9223 96.4673 71.8342 96.5416 71.7609C96.6158 71.6875 96.7061 71.6306 96.8061 71.5943C96.8304 71.5849 96.8565 71.5802 96.8828 71.5804C96.9091 71.5806 96.9351 71.5857 96.9593 71.5955C96.9835 71.6053 97.0055 71.6195 97.0239 71.6374C97.0424 71.6552 97.057 71.6763 97.0668 71.6996C97.0767 71.7228 97.0816 71.7476 97.0814 71.7726C97.0812 71.7977 97.0758 71.8224 97.0655 71.8454C97.0552 71.8685 97.0403 71.8894 97.0215 71.9069C97.0028 71.9245 96.9806 71.9384 96.9562 71.9477C96.9115 71.963 96.8708 71.9873 96.8367 72.0188C96.8028 72.0504 96.7762 72.0885 96.759 72.1307C96.717 72.2607 96.7895 72.4327 96.8656 72.5837L96.8881 72.6284C96.93 72.7212 96.9815 72.8097 97.0418 72.8928C97.0888 72.9514 97.231 73.131 97.5873 72.9633C97.7037 72.9146 97.8041 72.8367 97.8776 72.738C97.9056 72.6901 97.9226 72.6371 97.9275 72.5825C97.9324 72.5279 97.9251 72.4729 97.9061 72.4212C97.8486 72.2364 97.6869 72.0749 97.4637 71.9778C97.4391 71.9678 97.4168 71.9533 97.3981 71.9351C97.3795 71.9168 97.3649 71.8952 97.3552 71.8715C97.3454 71.8478 97.3408 71.8225 97.3415 71.797C97.3423 71.7716 97.3483 71.7465 97.3594 71.7234C97.3705 71.7002 97.3863 71.6794 97.406 71.6621C97.4256 71.6449 97.4487 71.6316 97.4739 71.623C97.499 71.6144 97.5258 71.6106 97.5525 71.612C97.5792 71.6134 97.6053 71.6198 97.6294 71.631C97.9587 71.7739 98.1994 72.0221 98.29 72.3126C98.3256 72.4166 98.3373 72.5265 98.3245 72.6351C98.3116 72.7438 98.2744 72.8485 98.2155 72.9423C98.1035 73.1007 97.9476 73.2264 97.765 73.3053C97.6258 73.374 97.4718 73.4113 97.3151 73.4144ZM96.3086 76.9583C96.2955 76.9584 96.2823 76.9572 96.2695 76.9545C96.2175 76.9447 96.1717 76.9157 96.1422 76.8738C96.1126 76.8319 96.1017 76.7806 96.1119 76.7311C96.1369 76.6092 96.1519 76.4853 96.1669 76.3538C96.1774 76.2648 96.1885 76.1719 96.203 76.0799C96.2705 75.6555 96.4132 75.2502 96.5533 74.8581C96.6883 74.4514 96.8477 74.0523 97.0308 73.663C97.0535 73.6172 97.0943 73.582 97.1443 73.5649C97.1944 73.5479 97.2495 73.5504 97.2975 73.572C97.3456 73.5936 97.3827 73.6325 97.4006 73.6801C97.4185 73.7278 97.4158 73.7802 97.3931 73.8259C97.21 74.1951 97.0693 74.5938 96.9327 74.9796C96.8001 75.3559 96.6624 75.7451 96.6004 76.1366C96.5868 76.2214 96.5773 76.3067 96.5663 76.3962C96.5508 76.5296 96.5348 76.6673 96.5063 76.8044C96.4973 76.848 96.4726 76.8872 96.4365 76.9152C96.4005 76.9433 96.3552 76.9585 96.3086 76.9583ZM95.5598 74.9544C95.5308 74.9544 95.5021 74.9483 95.4757 74.9367C95.4276 74.9155 95.3902 74.8769 95.3719 74.8295C95.3536 74.7821 95.3558 74.7296 95.3782 74.6838C95.6037 74.22 95.9109 73.7963 96.2865 73.431C96.3237 73.3949 96.3744 73.3743 96.4275 73.3737C96.4539 73.3735 96.4799 73.3782 96.5044 73.3875C96.5288 73.3968 96.551 73.4107 96.5698 73.4282C96.5886 73.4457 96.6036 73.4665 96.6139 73.4896C96.6242 73.5126 96.6297 73.5374 96.63 73.5624C96.6302 73.5874 96.6253 73.6122 96.6155 73.6355C96.6058 73.6587 96.5912 73.6799 96.5728 73.6978C96.2291 74.0319 95.9479 74.4195 95.7415 74.8439C95.7254 74.8768 95.6998 74.9048 95.6676 74.9244C95.6354 74.9439 95.598 74.9544 95.5598 74.9544ZM99.7074 72.869C99.4438 72.8634 99.1811 72.8385 98.9216 72.7942C98.8215 72.7794 98.7254 72.7656 98.6363 72.7551C98.6096 72.7528 98.5837 72.7455 98.5601 72.7335C98.5365 72.7215 98.5156 72.7051 98.4988 72.6853C98.4819 72.6655 98.4694 72.6427 98.462 72.6182C98.4545 72.5937 98.4524 72.568 98.4555 72.5427C98.4587 72.5174 98.4672 72.493 98.4805 72.4709C98.4938 72.4487 98.5116 72.4293 98.5329 72.4139C98.5542 72.3984 98.5785 72.3872 98.6044 72.3808C98.6304 72.3745 98.6574 72.3732 98.6839 72.3769C98.78 72.3879 98.8786 72.4026 98.9842 72.4179C99.4346 72.4841 99.9481 72.5608 100.416 72.3531C100.513 72.3112 100.6 72.2511 100.671 72.1765C100.743 72.1018 100.798 72.0141 100.833 71.9187C100.865 71.8227 100.875 71.7215 100.863 71.6216C100.851 71.5216 100.817 71.4252 100.763 71.3385C100.736 71.2951 100.728 71.2432 100.741 71.1942C100.754 71.1452 100.787 71.1031 100.833 71.0772C100.878 71.0513 100.933 71.0437 100.984 71.0561C101.036 71.0685 101.08 71.0998 101.107 71.1432C101.19 71.2766 101.242 71.425 101.26 71.5787C101.279 71.7325 101.263 71.8883 101.214 72.0359C101.162 72.1816 101.08 72.3157 100.972 72.4297C100.863 72.5438 100.731 72.6354 100.584 72.6989C100.309 72.8163 100.009 72.8744 99.7074 72.869Z" fill="white"/>
    <path d="M130.648 71.6509C130.81 71.7692 130.952 71.7853 131.145 71.7853C131.197 71.7853 131.422 71.7175 131.468 71.6913C131.516 71.6631 131.574 71.6925 131.623 71.6644C131.71 71.6139 131.899 71.6509 131.997 71.6509C132.339 71.6509 132.676 71.7473 132.952 71.9675C133.083 72.0713 133.226 72.1606 133.264 72.3362C133.285 72.4359 133.34 72.5139 133.34 72.6244V72.914C133.34 73.1645 133.273 73.3639 133.198 73.5993C133.153 73.7402 133.055 74.0293 132.888 74.0681C132.774 74.0944 132.614 74.0056 132.513 73.9561C132.334 73.8679 132.007 73.8673 131.819 73.9218C131.385 74.0473 131.196 74.548 131.196 74.9773C131.196 75.1736 131.148 75.3485 131.327 75.4535C131.471 75.5376 131.632 75.6393 131.744 75.7566C131.799 75.813 131.883 75.8469 131.931 75.9104C131.972 75.9651 131.863 76.0397 131.832 76.0716C131.679 76.2304 131.528 76.4062 131.366 76.5673C131.182 76.7498 130.967 76.6494 130.732 76.6494C130.611 76.6494 130.468 76.6737 130.357 76.6225C130.204 76.5516 130.078 76.4344 129.931 76.3538C129.792 76.2776 129.603 76.2241 129.479 76.1239C129.346 76.0163 129.137 75.9586 128.97 75.9507C128.785 75.942 128.622 75.8584 128.446 75.8178C128.04 75.724 128.052 75.2232 128.046 74.8758C128.037 74.3779 127.994 73.8805 127.994 73.3798C127.994 73.1762 128.051 72.9508 128.098 72.7528C128.143 72.5602 128.185 72.3504 128.258 72.1675C128.437 71.7244 128.76 71.0597 129.298 71.0597C129.402 71.0597 129.542 71.035 129.641 71.0657C129.817 71.1198 129.988 71.1956 130.164 71.2478C130.347 71.3023 130.497 71.5403 130.648 71.6509Z" fill="white"/>
    <path d="M131.341 70.7022C131.224 70.8625 131.089 71.1348 131.089 71.3317C131.216 71.2728 131.337 71.1922 131.467 71.1322C131.671 71.0379 131.863 70.9439 132.077 70.8654C132.347 70.7666 132.658 70.7288 132.939 70.666C133.058 70.6393 133.178 70.5947 133.3 70.5856C133.363 70.581 133.333 70.3185 133.329 70.2748C133.313 70.0797 133.103 70.0966 132.984 69.9976C132.785 69.8317 132.449 69.9929 132.245 70.0611C131.846 70.1945 131.577 70.3782 131.341 70.7022Z" fill="white"/>
    <path d="M143.936 123.537H143.924C126.74 122.954 109.312 122.561 92.1235 122.371C92.0083 122.371 91.8978 122.31 91.8163 122.201C91.7349 122.092 91.6892 121.943 91.6892 121.789C91.6892 121.634 91.7349 121.486 91.8163 121.377C91.8978 121.268 92.0083 121.206 92.1235 121.206C109.316 121.4 126.754 121.789 143.939 122.371C144.054 122.374 144.165 122.437 144.245 122.547C144.326 122.658 144.37 122.807 144.368 122.962C144.367 123.116 144.32 123.263 144.238 123.371C144.155 123.479 144.043 123.539 143.928 123.537H143.936Z" fill="black"/>
    <path d="M138.892 131.928H138.882C125.044 131.346 111.009 130.952 97.1668 130.763C97.0741 130.763 96.9851 130.702 96.9195 130.592C96.8539 130.483 96.8171 130.335 96.8171 130.18C96.8171 130.026 96.8539 129.877 96.9195 129.768C96.9851 129.659 97.0741 129.597 97.1668 129.597C111.012 129.791 125.055 130.18 138.895 130.763C138.987 130.765 139.076 130.828 139.141 130.939C139.206 131.049 139.242 131.198 139.24 131.353C139.239 131.507 139.201 131.655 139.135 131.763C139.068 131.871 138.978 131.93 138.886 131.928H138.892Z" fill="black"/>
    <path d="M143.936 140.32H143.924C126.74 139.737 109.312 139.344 92.1235 139.154C92.0083 139.154 91.8978 139.093 91.8163 138.984C91.7349 138.874 91.6892 138.726 91.6892 138.571C91.6892 138.417 91.7349 138.269 91.8163 138.16C91.8978 138.05 92.0083 137.989 92.1235 137.989C109.316 138.183 126.754 138.571 143.939 139.154C144.054 139.156 144.165 139.219 144.245 139.33C144.326 139.441 144.37 139.59 144.368 139.744C144.367 139.899 144.32 140.046 144.238 140.154C144.155 140.262 144.043 140.322 143.928 140.32H143.936Z" fill="black"/>
    <path d="M58.1296 221.986C58.0107 221.986 57.8942 221.953 57.7934 221.89C57.6925 221.828 57.6113 221.737 57.559 221.631C55.1735 216.773 54.8993 210.282 56.8616 205.096C56.8912 205.019 56.9358 204.947 56.993 204.885C57.0501 204.825 57.1185 204.776 57.1946 204.741C57.2707 204.708 57.3526 204.689 57.436 204.686C57.5194 204.684 57.6023 204.698 57.6803 204.727C57.7583 204.757 57.8296 204.801 57.8903 204.858C57.951 204.916 57.9998 204.984 58.034 205.06C58.0683 205.136 58.0873 205.218 58.0897 205.302C58.0922 205.385 58.0784 205.469 58.0488 205.546C56.2323 210.344 56.4939 216.583 58.6971 221.08C58.734 221.154 58.7557 221.235 58.7609 221.319C58.7663 221.401 58.7552 221.485 58.7283 221.565C58.7013 221.642 58.6592 221.715 58.604 221.779C58.5489 221.84 58.482 221.893 58.407 221.929C58.32 221.969 58.2252 221.988 58.1296 221.986ZM63.1291 217.889C62.9955 217.889 62.8652 217.846 62.7571 217.767C62.6488 217.689 62.5683 217.578 62.5268 217.452C61.5962 214.521 61.6626 211.367 62.7154 208.479C62.7752 208.322 62.8948 208.193 63.0483 208.125C63.2017 208.055 63.3762 208.051 63.5333 208.111C63.6905 208.17 63.8177 208.29 63.8866 208.444C63.9555 208.596 63.9608 208.772 63.901 208.929C62.9643 211.401 62.8993 214.516 63.733 217.057C63.759 217.136 63.7691 217.219 63.7628 217.303C63.7565 217.385 63.7338 217.466 63.6962 217.54C63.6585 217.615 63.6065 217.681 63.5433 217.735C63.4799 217.789 63.4065 217.83 63.3272 217.857C63.2634 217.878 63.1965 217.889 63.1291 217.889ZM69.7086 220.908C69.6865 220.91 69.6642 220.91 69.642 220.908C69.4751 220.891 69.3218 220.807 69.2159 220.677C69.1102 220.547 69.0604 220.379 69.0777 220.213C69.5748 215.421 69.6564 210.595 69.3218 205.789C69.3161 205.705 69.3269 205.621 69.3535 205.543C69.38 205.464 69.422 205.391 69.4768 205.328C69.5315 205.264 69.5982 205.214 69.6731 205.175C69.7477 205.139 69.829 205.117 69.9122 205.111C69.9956 205.106 70.0791 205.115 70.1582 205.142C70.2373 205.169 70.3104 205.21 70.3733 205.266C70.4362 205.321 70.4878 205.388 70.525 205.462C70.5621 205.537 70.5841 205.618 70.5898 205.702C70.9289 210.579 70.8455 215.475 70.341 220.338C70.3253 220.495 70.2519 220.639 70.1349 220.745C70.0181 220.85 69.8661 220.908 69.7086 220.908ZM76.89 220.17C76.8585 220.171 76.8266 220.171 76.7949 220.17C76.6286 220.144 76.4792 220.054 76.3793 219.919C76.2794 219.783 76.2374 219.615 76.2623 219.449C76.8485 215.556 76.9433 211.604 76.5445 207.688C76.5361 207.604 76.5441 207.52 76.5682 207.44C76.5923 207.36 76.632 207.285 76.6847 207.22C76.7377 207.155 76.8028 207.101 76.8765 207.062C76.9502 207.022 77.0311 206.998 77.1143 206.989C77.1977 206.981 77.2817 206.989 77.3619 207.013C77.4421 207.036 77.5166 207.076 77.5814 207.13C77.6462 207.182 77.7001 207.247 77.7397 207.322C77.7794 207.395 77.8041 207.475 77.8125 207.559C78.2221 211.581 78.1246 215.638 77.5224 219.637C77.4982 219.786 77.421 219.923 77.305 220.021C77.1889 220.118 77.0417 220.171 76.89 220.17ZM82.9464 219.409H82.8655C82.6988 219.387 82.5476 219.301 82.4447 219.168C82.3419 219.035 82.2961 218.867 82.3171 218.701C82.9489 213.686 82.8695 208.607 82.081 203.614C82.0542 203.448 82.0946 203.278 82.1932 203.142C82.2916 203.006 82.4403 202.914 82.6064 202.887C82.7724 202.86 82.9423 202.901 83.0786 202.999C83.2149 203.098 83.3063 203.247 83.3331 203.413C84.1404 208.525 84.222 213.725 83.5756 218.861C83.5549 219.013 83.4798 219.152 83.3639 219.252C83.2482 219.354 83.0998 219.409 82.9464 219.409ZM90.1934 220.17C90.153 220.17 90.1126 220.165 90.073 220.157C89.9912 220.141 89.9132 220.11 89.8436 220.064C89.7742 220.018 89.7143 219.959 89.6677 219.889C89.6209 219.82 89.5884 219.742 89.5716 219.661C89.555 219.579 89.5547 219.495 89.5705 219.414C90.4497 214.808 90.26 210.064 89.0158 205.543C88.9928 205.462 88.9858 205.378 88.9955 205.296C89.005 205.212 89.0308 205.133 89.0716 205.06C89.1121 204.987 89.1668 204.922 89.2323 204.871C89.2979 204.819 89.3729 204.781 89.4532 204.759C89.5336 204.735 89.6178 204.729 89.7005 204.738C89.7834 204.749 89.8636 204.774 89.9364 204.816C90.0091 204.857 90.073 204.912 90.1245 204.977C90.176 205.044 90.2139 205.118 90.2362 205.199C91.5336 209.91 91.7314 214.857 90.8148 219.656C90.7869 219.801 90.7095 219.931 90.5962 220.024C90.4829 220.118 90.3405 220.17 90.1934 220.17ZM97.1135 218.307C97.0737 218.307 97.034 218.304 96.9946 218.296C96.9129 218.28 96.835 218.249 96.7653 218.203C96.6957 218.157 96.6358 218.098 96.589 218.03C96.5423 217.96 96.5095 217.883 96.4925 217.802C96.4757 217.719 96.4751 217.635 96.4906 217.555C97.1111 214.253 97.0896 210.863 96.4272 207.569C96.396 207.412 96.4245 207.25 96.5071 207.114C96.5897 206.979 96.7203 206.879 96.8732 206.835C97.026 206.791 97.1898 206.805 97.3321 206.876C97.4744 206.948 97.5847 207.07 97.6413 207.219L97.9821 208.119C98.0179 208.214 98.0303 208.315 98.0181 208.417C98.006 208.518 97.9697 208.615 97.9124 208.699C98.3601 211.718 98.3012 214.792 97.738 217.792C97.7104 217.937 97.6328 218.068 97.5188 218.162C97.4047 218.257 97.2614 218.307 97.1135 218.307ZM104.179 218.268C104.135 218.268 104.091 218.263 104.048 218.254C103.966 218.236 103.889 218.203 103.82 218.155C103.752 218.109 103.693 218.049 103.647 217.979C103.602 217.91 103.571 217.832 103.555 217.75C103.54 217.667 103.541 217.583 103.558 217.502C104.539 212.806 104.761 207.983 104.216 203.216C104.197 203.048 104.245 202.879 104.35 202.746C104.455 202.614 104.609 202.528 104.777 202.509C104.945 202.49 105.114 202.538 105.247 202.643C105.379 202.749 105.465 202.903 105.484 203.071C106.043 207.973 105.815 212.934 104.807 217.765C104.777 217.908 104.698 218.036 104.583 218.128C104.469 218.22 104.326 218.269 104.179 218.268ZM111.111 218.268C111.062 218.268 111.013 218.261 110.965 218.25C110.884 218.231 110.807 218.196 110.739 218.149C110.672 218.1 110.614 218.038 110.57 217.968C110.526 217.897 110.496 217.819 110.482 217.737C110.468 217.654 110.471 217.57 110.49 217.49C110.976 215.367 111.12 213.181 110.916 211.015C110.908 210.931 110.917 210.847 110.941 210.767C110.966 210.687 111.006 210.612 111.059 210.549C111.112 210.484 111.178 210.43 111.252 210.392C111.326 210.352 111.406 210.328 111.49 210.32C111.573 210.313 111.657 210.32 111.737 210.346C111.817 210.37 111.891 210.409 111.956 210.463C112.02 210.517 112.074 210.582 112.113 210.657C112.152 210.729 112.176 210.81 112.184 210.894C112.402 213.197 112.249 215.523 111.731 217.778C111.698 217.918 111.619 218.041 111.507 218.131C111.394 218.22 111.254 218.268 111.111 218.268ZM117.029 219.801C116.965 219.801 116.901 219.789 116.839 219.77C116.679 219.72 116.546 219.609 116.468 219.46C116.39 219.311 116.374 219.138 116.424 218.978C117.359 215.984 117.992 212.904 118.313 209.785C118.322 209.701 118.347 209.62 118.387 209.547C118.427 209.473 118.48 209.408 118.545 209.355C118.61 209.303 118.685 209.263 118.765 209.239C118.846 209.216 118.93 209.208 119.013 209.216C119.096 209.225 119.177 209.249 119.251 209.29C119.324 209.33 119.389 209.384 119.442 209.449C119.495 209.514 119.534 209.588 119.558 209.667C119.582 209.748 119.59 209.832 119.581 209.916C119.251 213.123 118.6 216.288 117.64 219.365C117.598 219.493 117.516 219.604 117.406 219.682C117.296 219.761 117.164 219.802 117.029 219.801ZM123.04 214.928C122.946 214.93 122.854 214.909 122.769 214.871C122.684 214.833 122.609 214.776 122.548 214.706C122.488 214.635 122.444 214.551 122.419 214.462C122.394 214.372 122.39 214.278 122.406 214.186L122.984 210.842C123.017 210.68 123.111 210.538 123.248 210.444C123.384 210.351 123.551 210.316 123.713 210.343C123.876 210.371 124.021 210.462 124.118 210.595C124.215 210.728 124.256 210.894 124.233 211.058L123.655 214.404C123.629 214.548 123.554 214.681 123.442 214.776C123.329 214.871 123.187 214.925 123.04 214.928Z" fill="black"/>
    <path d="M71.1285 122.657C74.549 119.408 78.0392 116.182 82.0351 113.673C86.1815 111.069 90.7844 109.292 95.3493 107.533L109.443 102.101C111.678 101.24 114.424 100.448 116.281 101.96C118.266 103.575 117.844 106.715 116.874 109.092C113.965 116.202 107.998 121.576 101.857 126.192C95.717 130.808 89.136 135.008 84.1511 140.85C80.0174 145.694 77.1595 151.47 73.9356 156.954C69.2408 164.946 63.7185 172.416 58.2058 179.867C54.8772 171.004 52.6474 161.765 51.5661 152.359C51.3521 150.503 50.9432 148.162 49.4343 146.881C49.1474 146.64 48.377 146.406 48.2709 146.032C48.144 145.593 49.0951 144.881 49.3724 144.585C50.3319 143.557 51.2956 142.537 52.2635 141.519C56.1797 137.398 60.1617 133.342 64.2099 129.354C66.4955 127.102 68.8017 124.87 71.1285 122.657Z" fill="#FBD2B5"/>
    <path d="M102.366 112.695C100.187 112.695 98.2248 111.814 97.1169 110.265C97.0639 110.198 97.0253 110.12 97.0031 110.038C96.9809 109.955 96.9756 109.869 96.9878 109.784C96.9999 109.699 97.0292 109.618 97.0736 109.544C97.1181 109.471 97.1769 109.408 97.2465 109.358C97.3163 109.308 97.3952 109.273 97.4789 109.254C97.5626 109.236 97.649 109.235 97.7331 109.251C97.8173 109.266 97.8973 109.299 97.9685 109.347C98.0397 109.395 98.1004 109.456 98.1471 109.528C99.3835 111.254 101.838 111.658 103.723 111.295C105.895 110.875 107.825 109.634 109.692 108.434C109.834 108.343 110.006 108.312 110.17 108.348C110.334 108.384 110.478 108.483 110.569 108.625C110.66 108.766 110.691 108.938 110.655 109.102C110.62 109.267 110.52 109.41 110.379 109.501C108.5 110.707 106.375 112.071 103.964 112.546C103.437 112.646 102.903 112.697 102.366 112.695ZM86.2436 123.325C86.0836 123.325 85.9296 123.263 85.8125 123.155C83.6758 121.172 81.877 118.853 80.4868 116.292C80.4387 116.219 80.4066 116.136 80.392 116.049C80.3776 115.964 80.381 115.875 80.4023 115.789C80.4237 115.705 80.4622 115.626 80.5158 115.556C80.5693 115.487 80.6367 115.429 80.7136 115.388C80.7903 115.345 80.8751 115.32 80.9623 115.312C81.0494 115.304 81.1373 115.315 81.2202 115.344C81.3031 115.371 81.3793 115.417 81.444 115.475C81.5088 115.534 81.5606 115.605 81.5963 115.686C82.9206 118.127 84.6337 120.335 86.6684 122.226C86.7616 122.312 86.8266 122.426 86.8549 122.549C86.8831 122.673 86.8735 122.803 86.8269 122.922C86.7804 123.041 86.6993 123.142 86.594 123.214C86.4889 123.285 86.3645 123.325 86.2372 123.325H86.2436ZM81.5884 123.548C81.4948 123.55 81.4021 123.531 81.3168 123.491C81.2317 123.453 81.1561 123.396 81.0954 123.325L78.5974 120.288C78.5442 120.223 78.504 120.148 78.4795 120.069C78.4549 119.99 78.4464 119.906 78.4543 119.822C78.4624 119.739 78.4866 119.658 78.5258 119.585C78.5651 119.511 78.6183 119.446 78.6828 119.392C78.7474 119.34 78.8217 119.3 78.9016 119.276C78.9815 119.251 79.0655 119.243 79.1485 119.251C79.2316 119.261 79.3123 119.284 79.3858 119.324C79.4593 119.364 79.5243 119.417 79.577 119.482L82.075 122.519C82.1818 122.649 82.2325 122.816 82.2162 122.984C82.1999 123.15 82.1178 123.304 81.9878 123.412C81.8746 123.502 81.7334 123.55 81.5884 123.548Z" fill="black"/>
    <path d="M81.0396 47.5489C80.3278 47.547 79.6391 47.2958 79.0932 46.8388C78.5473 46.3819 78.1788 45.7482 78.0518 45.0477C77.3211 40.9267 77.0866 38.1624 78.1612 37.1226C78.716 36.5837 80.4357 36.384 85.6108 35.9021C88.6731 35.6168 92.1443 35.2951 95.335 34.7926C96.2115 34.6547 96.9691 34.8338 97.5857 35.3236C99.1089 36.5361 99.3086 39.3448 99.4545 41.3943C99.4909 41.9141 99.5226 42.3643 99.5717 42.7035C99.6681 43.3527 99.5064 44.0138 99.1213 44.5454C98.7361 45.0769 98.1581 45.4364 97.5112 45.547C92.3076 46.4441 86.9438 46.9735 81.756 47.495L81.3439 47.5346C81.2428 47.5451 81.1412 47.5499 81.0396 47.5489ZM79.0346 38.0498C78.5163 38.6014 78.6082 40.8823 79.3056 44.829C79.3847 45.2662 79.6253 45.6575 79.9797 45.9254C80.3343 46.1932 80.7765 46.3178 81.2187 46.2745L81.6324 46.2333C86.798 45.7198 92.138 45.1888 97.2972 44.2996C97.6192 44.2443 97.9067 44.0653 98.0983 43.8008C98.2899 43.5363 98.3705 43.2072 98.3227 42.8842C98.2673 42.5006 98.234 42.0298 98.1959 41.4846C98.0739 39.7728 97.89 37.1844 96.8027 36.3174C96.4714 36.0543 96.0577 35.9655 95.5347 36.0464C92.306 36.5536 88.8126 36.8785 85.7313 37.1654C82.8386 37.4301 79.564 37.7328 79.0346 38.0498Z" fill="#1B5EC9"/>
    <path d="M84.8899 47.1749C84.7644 47.175 84.6419 47.1376 84.538 47.0671C84.3984 46.9739 84.3014 46.829 84.2684 46.6644C84.2355 46.4998 84.2692 46.3288 84.3621 46.189C85.6301 44.287 86.9077 40.8839 87.7493 38.6332C88.2248 37.3731 88.4562 36.7549 88.6274 36.4712C88.7146 36.3274 88.8553 36.2243 89.0188 36.1842C89.182 36.1442 89.3546 36.1708 89.4984 36.258C89.6421 36.3452 89.7453 36.4859 89.7853 36.6494C89.8254 36.8126 89.7988 36.9852 89.7116 37.129C89.5943 37.3224 89.2757 38.1751 88.9381 39.077C88.0695 41.3785 86.7698 44.8655 85.4177 46.8928C85.3597 46.9796 85.2813 47.0508 85.1892 47.1001C85.0971 47.1492 84.9944 47.1749 84.8899 47.1749Z" fill="#1B5EC9"/>
    <path d="M112.162 36.7518C113.747 36.2097 115.627 37.8502 115.299 39.5003C114.971 41.1503 112.614 41.9507 111.351 40.8428C110.087 39.7348 110.563 37.2923 112.162 36.7518Z" fill="black"/>
    <path d="M119.39 41.1771C120.816 41.529 122.362 40.1246 122.151 38.6759C121.94 37.2272 120.005 36.2476 118.791 37.0671C116.549 38.5808 117.968 40.8236 119.39 41.1771Z" fill="#FF5400"/>
    <path d="M124.674 38.576C124.559 38.8808 124.516 39.2078 124.548 39.5319C124.58 39.8559 124.686 40.1683 124.858 40.4447C125.75 41.9362 128.262 41.7397 128.938 40.1277C129.132 39.6509 129.155 39.1211 129.002 38.6292C128.849 38.1374 128.529 37.7142 128.098 37.4322C127.667 37.1502 127.151 37.0269 126.639 37.0835C126.128 37.1401 125.651 37.3729 125.292 37.7422C125.041 37.984 124.832 38.2658 124.674 38.576Z" fill="#1B5EC9"/>
    <path d="M94.6886 187.054C95.2497 186.945 96.8014 186.065 93.056 185.152C91.5661 184.789 87.7145 185.005 86.7286 180.996C86.326 179.36 86.7793 176.617 86.5479 174.973C86.429 174.126 86.0851 172.923 84.9629 172.537C83.2685 171.949 81.563 173.204 81.5884 177.249C81.6058 180.013 82.7327 184.63 84.8931 186.203C86.96 187.71 92.1716 187.537 94.6886 187.054ZM60.4645 177.444C60.3476 177.444 60.2327 177.411 60.133 177.35C60.0331 177.289 59.9523 177.201 59.8992 177.097C59.8462 176.992 59.8231 176.875 59.8326 176.759C59.8419 176.642 59.8835 176.529 59.9526 176.436C61.4251 174.429 62.4886 173.074 63.3556 171.985C65.1134 169.766 66.1754 168.414 68.6354 164.192C68.674 164.114 68.7281 164.044 68.7943 163.989C68.8606 163.933 68.9375 163.892 69.0204 163.867C69.1034 163.841 69.1906 163.833 69.2765 163.844C69.3626 163.854 69.4456 163.882 69.5206 163.925C69.5956 163.968 69.6609 164.027 69.7124 164.096C69.7639 164.166 69.8007 164.245 69.8203 164.329C69.84 164.413 69.8422 164.502 69.8268 164.586C69.8114 164.672 69.7786 164.753 69.7306 164.826C67.2263 169.126 66.085 170.574 64.3494 172.768C63.4523 173.905 62.4347 175.193 60.9749 177.182C60.9164 177.263 60.8397 177.328 60.751 177.374C60.6624 177.419 60.5642 177.444 60.4645 177.444ZM48.2741 146.666C48.137 146.666 48.0035 146.622 47.8937 146.539C47.784 146.457 47.704 146.341 47.6655 146.209C47.4356 145.417 48.2202 144.715 48.8511 144.149C48.9636 144.046 49.0698 143.951 49.1253 143.892C50.2744 142.678 51.4346 141.461 52.5743 140.275C57.2263 135.433 62.021 130.606 66.8268 125.913C66.9473 125.796 67.1094 125.731 67.2778 125.732C67.4459 125.734 67.6065 125.804 67.724 125.924C67.8416 126.045 67.9064 126.206 67.9043 126.374C67.9021 126.542 67.8333 126.704 67.7129 126.821C62.9166 131.5 58.1298 136.322 53.4888 141.153C52.3508 142.337 51.1921 143.551 50.0462 144.764C49.9574 144.859 49.8385 144.965 49.7006 145.081C49.5041 145.258 48.9985 145.715 48.9081 145.935C48.9303 146.086 48.897 146.241 48.8143 146.369C48.7315 146.498 48.6051 146.593 48.458 146.636C48.3985 146.655 48.3366 146.664 48.2741 146.666Z" fill="black"/>
    <path d="M71.1093 162.541C70.9941 162.541 70.8809 162.51 70.782 162.449C70.6833 162.391 70.6026 162.305 70.5486 162.204C70.4947 162.102 70.4695 161.987 70.4758 161.872C70.4822 161.757 70.5199 161.646 70.5847 161.551L72.3092 159.015C72.3553 158.943 72.4149 158.883 72.4847 158.837C72.5544 158.79 72.6327 158.756 72.7151 158.74C72.7976 158.723 72.8825 158.723 72.9649 158.74C73.0474 158.758 73.1257 158.79 73.1952 158.837C73.2648 158.885 73.3244 158.945 73.3704 159.015C73.4164 159.086 73.4477 159.165 73.463 159.248C73.4782 159.33 73.4767 159.416 73.4588 159.496C73.4409 159.579 73.4068 159.657 73.3585 159.726L71.634 162.262C71.576 162.348 71.4978 162.418 71.4064 162.467C71.3149 162.516 71.2129 162.541 71.1093 162.541Z" fill="black"/>
    <path d="M97.4764 42.0916C97.3244 42.091 97.1778 42.036 97.063 41.9363C96.9482 41.8368 96.873 41.6992 96.8511 41.5489C96.8292 41.3985 96.862 41.2452 96.9437 41.1172C97.0253 40.9889 97.1502 40.8943 97.2957 40.8506C97.9782 40.6699 98.6769 40.5573 99.3816 40.5144C99.6162 40.4922 99.8571 40.47 100.084 40.4415C100.727 40.3654 101.653 40.2055 102.254 39.7109C102.302 39.6897 102.342 39.652 102.366 39.6044C102.389 39.5569 102.396 39.5027 102.384 39.4508C102.393 39.0879 102.327 38.817 102.185 38.6411C101.959 38.4109 101.659 38.2694 101.338 38.2415C100.901 38.1968 100.462 38.201 100.027 38.2543L97.2038 38.4873C97.0356 38.5011 96.8688 38.4477 96.7401 38.3385C96.6764 38.2844 96.624 38.2185 96.5858 38.1441C96.5476 38.0698 96.5243 37.9888 96.5174 37.9054C96.5105 37.8222 96.5201 37.7385 96.5457 37.659C96.5712 37.5794 96.6121 37.5055 96.6661 37.4418C96.7752 37.3131 96.931 37.2331 97.0991 37.2193L99.9221 36.9863C100.455 36.9235 100.994 36.9235 101.528 36.9863C102.162 37.0582 102.748 37.3626 103.171 37.8405C103.507 38.2557 103.669 38.8075 103.647 39.4827C103.648 39.7005 103.604 39.9164 103.519 40.1167C103.409 40.3381 103.251 40.5317 103.056 40.6824C102.198 41.3909 101.032 41.5985 100.23 41.6954C99.9855 41.7239 99.7398 41.7477 99.4941 41.7699C98.8723 41.807 98.2554 41.9041 97.6523 42.0598C97.5954 42.0785 97.5361 42.0891 97.4764 42.0916ZM74.9012 44.8304C73.8899 44.8304 73.0958 44.561 72.8834 43.7336C72.8652 43.6795 72.8435 43.6266 72.8184 43.5751C72.7214 43.3914 72.6606 43.1907 72.6393 42.9839C72.5743 42.1232 73.0388 41.2134 73.855 40.6063C74.2925 40.2893 75.3085 40.1102 77.4245 39.8471C77.9159 39.7853 78.534 39.7092 78.6624 39.6696C78.7423 39.6452 78.8262 39.6368 78.9092 39.6448C78.9923 39.6529 79.073 39.6773 79.1467 39.7166C79.2202 39.756 79.2853 39.8094 79.3383 39.874C79.3912 39.9386 79.4308 40.0129 79.4549 40.0928C79.5047 40.253 79.4889 40.4263 79.411 40.5748C79.3332 40.7235 79.1998 40.835 79.0397 40.8853C78.5594 40.9909 78.0728 41.066 77.583 41.1104C76.7224 41.2166 74.9329 41.4401 74.5984 41.6382C74.1499 41.971 73.8725 42.464 73.9042 42.8888C73.9042 42.9109 73.9438 42.9854 73.9676 43.0393C74.028 43.1598 74.0768 43.2855 74.1134 43.415C74.1134 43.415 74.3369 43.6527 75.5748 43.5164C76.4767 43.3942 77.3706 43.2191 78.2519 42.9918C78.6989 42.8856 79.0444 42.8016 79.3028 42.7604C79.4689 42.7337 79.6388 42.7742 79.775 42.8726C79.9113 42.9712 80.0029 43.1199 80.0295 43.2858C80.0563 43.4519 80.0159 43.6218 79.9173 43.7582C79.8189 43.8943 79.6702 43.9859 79.5041 44.0125C79.298 44.0458 78.9493 44.1282 78.5531 44.2249C77.3912 44.5023 76.0139 44.8304 74.9012 44.8304Z" fill="#1B5EC9"/>
    <path d="M78.6037 37.5744C77.6258 38.5254 78.1916 42.1979 78.6751 44.9368C78.7811 45.5318 79.1079 46.065 79.5903 46.4294C80.0726 46.7938 80.6746 46.9628 81.2761 46.9022C83.0069 46.7311 83.1575 46.7247 84.89 46.5409L89.523 36.1589C84.107 36.7169 79.1934 37.0069 78.6037 37.5744Z" fill="#1B5EC9"/>
    <path d="M197.714 54.4472C197.583 54.4474 197.457 54.4065 197.353 54.3309C197.25 54.2553 197.177 54.1493 197.145 54.0298C195.349 47.2111 190.004 41.2371 183.196 38.4443C183.058 38.3825 182.951 38.2724 182.898 38.1374C182.844 38.0025 182.847 37.8529 182.908 37.7204C182.969 37.5879 183.08 37.4828 183.221 37.4273C183.362 37.3718 183.519 37.3703 183.661 37.4229C190.798 40.3452 196.401 46.6072 198.283 53.7556C198.305 53.838 198.307 53.924 198.289 54.0074C198.271 54.0906 198.233 54.1688 198.178 54.236C198.123 54.3032 198.053 54.3575 197.972 54.3949C197.891 54.4322 197.803 54.4515 197.714 54.4514V54.4472Z" fill="black"/>
    <path d="M200.099 51.2006C199.985 51.2003 199.874 51.1652 199.78 51.0998C199.689 51.0345 199.619 50.9422 199.582 50.8356C198.139 46.781 195.801 43.0985 192.739 40.0587C192.651 39.9547 192.606 39.8221 192.613 39.6871C192.618 39.5519 192.674 39.4238 192.77 39.3277C192.866 39.2314 192.994 39.1742 193.131 39.1669C193.267 39.1595 193.401 39.2028 193.507 39.2882C196.687 42.4437 199.114 46.2668 200.611 50.4763C200.635 50.5437 200.646 50.6152 200.642 50.6866C200.637 50.7581 200.62 50.8281 200.588 50.8925C200.557 50.957 200.513 51.0147 200.459 51.0624C200.406 51.1102 200.343 51.1468 200.275 51.1705C200.218 51.1898 200.159 51.1999 200.099 51.2006ZM205.068 42.5435C204.935 42.545 204.806 42.4987 204.706 42.4133C204.605 42.3281 204.539 42.2094 204.52 42.0792C203.56 35.7636 199.418 29.9981 193.718 27.0343C193.654 27.001 193.597 26.9555 193.551 26.9007C193.505 26.8457 193.47 26.7822 193.448 26.7139C193.427 26.6455 193.419 26.5736 193.426 26.5023C193.433 26.4311 193.453 26.3618 193.486 26.2984C193.521 26.2351 193.566 26.1788 193.621 26.1329C193.677 26.0872 193.74 26.0526 193.81 26.0313C193.878 26.01 193.95 26.0024 194.022 26.0088C194.094 26.0153 194.164 26.0357 194.228 26.069C200.232 29.1907 204.591 35.264 205.61 41.9172C205.63 42.06 205.595 42.2056 205.508 42.3217C205.422 42.4378 205.293 42.5151 205.149 42.5367C205.122 42.5409 205.094 42.5432 205.068 42.5435Z" fill="black"/>
    <path d="M185.365 209.679C182.032 209.679 178.843 209.364 175.228 208.712C175.15 208.701 175.076 208.674 175.01 208.635C174.944 208.595 174.886 208.543 174.841 208.482C174.794 208.42 174.763 208.35 174.747 208.276C174.729 208.202 174.728 208.125 174.742 208.051C174.757 207.976 174.786 207.905 174.829 207.842C174.871 207.778 174.928 207.725 174.993 207.682C175.058 207.64 175.131 207.612 175.208 207.599C175.284 207.585 175.363 207.586 175.439 207.603C180.988 208.604 185.544 208.793 191.16 208.254C191.236 208.247 191.312 208.254 191.386 208.275C191.459 208.296 191.527 208.331 191.586 208.379C191.646 208.426 191.695 208.485 191.731 208.55C191.768 208.616 191.789 208.688 191.797 208.762C191.804 208.837 191.797 208.911 191.775 208.982C191.753 209.054 191.715 209.12 191.668 209.178C191.618 209.234 191.559 209.282 191.492 209.318C191.424 209.353 191.35 209.376 191.275 209.383C189.196 209.579 187.26 209.679 185.365 209.679ZM185.76 205.521C183.051 205.521 180.656 205.137 177.592 204.287C177.517 204.268 177.447 204.234 177.386 204.189C177.325 204.142 177.274 204.086 177.235 204.021C177.198 203.955 177.173 203.883 177.164 203.809C177.156 203.734 177.161 203.658 177.183 203.586C177.203 203.514 177.24 203.447 177.288 203.389C177.337 203.329 177.396 203.281 177.463 203.245C177.531 203.21 177.606 203.187 177.682 203.18C177.759 203.173 177.837 203.18 177.911 203.202C182.146 204.376 185.054 204.625 189.434 204.19C189.588 204.175 189.741 204.22 189.862 204.314C189.98 204.409 190.057 204.547 190.073 204.697C190.089 204.846 190.043 204.996 189.944 205.113C189.847 205.229 189.706 205.303 189.553 205.319C188.292 205.449 187.026 205.516 185.76 205.521Z" fill="black"/>
</svg>
